<?xml version="1.0" encoding="UTF-8"?>
<svg id="Layer_1" data-name="Layer 1" xmlns="http://www.w3.org/2000/svg" xmlns:xlink="http://www.w3.org/1999/xlink" viewBox="0 0 1000 1000">
  <defs>
    <style>
      .cls-1 {
        fill: none;
      }

      .cls-2 {
        clip-path: url(#clippath-1);
      }

      .cls-3 {
        fill: #202020;
      }

      .cls-4 {
        clip-path: url(#clippath);
      }
    </style>
    <clipPath id="clippath">
      <rect class="cls-1" x="83.38" y="374.52" width="833.24" height="250.95"/>
    </clipPath>
    <clipPath id="clippath-1">
      <rect class="cls-1" x="83.38" y="374.52" width="833.24" height="250.95"/>
    </clipPath>
  </defs>
  <g id="Artwork_3" data-name="Artwork 3">
    <g class="cls-4">
      <g class="cls-2">
        <path class="cls-3" d="M310.67,550.92h-22.66v-134.42c0-.88-.7-1.66-1.72-1.89l-63.01-14.32c-1.01-.23-1.72-1.01-1.72-1.89v-21.92c0-1.45-1.82-2.4-3.36-1.75l-43.47,18.3c-.79.33-1.29,1.01-1.29,1.75v40.81c0,.88-.7,1.66-1.72,1.89l-61.65,14.01c-1.01.23-1.72,1.01-1.72,1.89v97.55h-22.66c-1.63,0-2.76,1.64-2.17,3.16,1.74,4.52,3.73,8.91,5.97,13.16.4.76,1.2,1.23,2.06,1.23h213.25c.86,0,1.66-.47,2.06-1.23,2.24-4.24,4.23-8.63,5.97-13.16.58-1.52-.54-3.16-2.17-3.16M225.08,426.68l14.21,7.18c.7.35,1.13.99,1.13,1.68v115.39h-18.86v-122.57c0-1.52,1.98-2.46,3.52-1.68M155.95,472.4c0-.69.43-1.32,1.13-1.68l12.84-6.49c1.55-.78,3.52.16,3.52,1.68v85.01h-17.49v-78.52Z"/>
        <path class="cls-3" d="M295,579.42H101.38c-1.9,0-3.01,2.17-1.88,3.7,3.45,4.65,7.22,9.05,11.28,13.16.44.44,1.04.69,1.66.69h171.49c.62,0,1.22-.25,1.66-.69,4.06-4.11,7.83-8.51,11.28-13.16,1.13-1.53.02-3.7-1.88-3.7"/>
        <path class="cls-3" d="M265.08,607.92h-133.79c-2.3,0-3.2,2.98-1.28,4.26,7.99,5.35,16.64,9.78,25.8,13.14.26.1.54.14.82.14h83.11c.28,0,.55-.05.82-.14,9.16-3.37,17.81-7.8,25.81-13.14,1.91-1.28,1.02-4.26-1.28-4.26"/>
        <path class="cls-3" d="M367.73,482.09v-16.3c0-1.02.82-1.84,1.84-1.84h60.2c1.02,0,1.84.82,1.84,1.84v16.3c0,1.02-.82,1.84-1.84,1.84h-60.2c-1.02,0-1.84-.82-1.84-1.84M414.48,552.28c-10.11,0-17.93-2.77-23.46-8.3-5.53-5.53-8.3-13.35-8.3-23.47v-73.1c0-.7.39-1.33,1.02-1.64l19.88-9.94c1.22-.61,2.66.28,2.66,1.65v81.61c0,3.93,1.07,6.96,3.21,9.1,2.14,2.14,5.23,3.21,9.28,3.21,1.9,0,3.81-.24,5.71-.71,1.32-.33,2.63-.69,3.95-1.07.97-.29,1.99.25,2.29,1.22l4.7,15.56c.27.91-.18,1.9-1.06,2.25-6.02,2.42-12.64,3.63-19.88,3.63"/>
        <path class="cls-3" d="M479.97,552.28c-14.4,0-25.61-4.01-33.64-12.04-8.03-8.03-12.04-19.12-12.04-33.28,0-9.16,1.84-17.13,5.53-23.91,3.69-6.78,8.89-12.01,15.61-15.7,6.72-3.68,14.72-5.53,24-5.53,13.2,0,23.67,3.92,31.41,11.78,7.73,7.85,11.6,18.74,11.6,32.66,0,1.19-.03,2.44-.09,3.75-.04.83-.11,1.7-.22,2.63-.11.94-.89,1.65-1.83,1.65h-72.39c-1.02,0-1.84-.82-1.84-1.84v-12.38c0-1.02.82-1.84,1.84-1.84h53.93c1.6,0,2.44,1.9,1.36,3.08l-.07.07c-1.09,1.19-3.04.49-3.19-1.12-.33-3.48-1.06-6.54-2.21-9.18-1.6-3.68-3.96-6.48-7.05-8.39-3.1-1.9-6.84-2.86-11.24-2.86-4.88,0-9.01,1.07-12.4,3.21-3.39,2.14-6.01,5.27-7.85,9.37-1.85,4.11-2.77,8.95-2.77,14.54,0,8.56,2.05,15.14,6.16,19.72s9.96,6.87,17.58,6.87c4.88,0,8.95-.89,12.22-2.68,2.87-1.56,5.35-3.58,7.44-6.07.52-.62,1.38-.86,2.13-.54l16.27,6.81c1.08.45,1.49,1.8.81,2.75-8.8,12.31-21.82,18.47-39.05,18.47"/>
        <path class="cls-3" d="M530.11,548.3v-82.51c0-1.02.82-1.84,1.84-1.84h14.84c.8,0,1.51.51,1.75,1.27l5.03,15.58c.06.18.09.37.09.56v66.93c0,1.02-.82,1.84-1.84,1.84h-19.88c-1.02,0-1.84-.82-1.84-1.84M551.08,493.62l-5.47-7.55c-.33-.45-.44-1.03-.3-1.57,1.96-7.31,5.54-12.88,10.75-16.72,5.41-3.98,12.1-5.98,20.08-5.98,1.63,0,3.21.09,4.72.28.96.12,1.64,1.01,1.57,1.98l-1.47,18.28c-.93.75-1.39,1.12-2.31,1.86-1.13-.18-2.43-.28-3.93-.28-8.87,0-15.77,3.25-20.71,9.74-.74.97-2.21.94-2.93-.05"/>
        <path class="cls-3" d="M588.11,548.3v-82.51c0-1.02.82-1.84,1.84-1.84h14.84c.8,0,1.51.51,1.75,1.27l5.03,15.58c.06.18.09.37.09.56v66.93c0,1.02-.82,1.84-1.84,1.84h-19.88c-1.02,0-1.84-.82-1.84-1.84M609.08,493.62l-5.47-7.55c-.33-.45-.44-1.03-.3-1.57,1.96-7.31,5.54-12.88,10.75-16.72,5.41-3.98,12.1-5.98,20.08-5.98,1.63,0,3.21.09,4.72.28.96.12,1.64,1.01,1.57,1.98l-1.47,18.28c-.93.75-1.39,1.12-2.31,1.86-1.13-.18-2.43-.28-3.93-.28-8.87,0-15.77,3.25-20.71,9.74-.74.97-2.21.94-2.93-.05"/>
        <path class="cls-3" d="M680.54,552.28c-12.73,0-22.73-4.01-29.98-12.04-7.26-8.03-10.89-19.12-10.89-33.28,0-9.39,1.64-17.46,4.91-24.18,3.27-6.72,7.97-11.89,14.1-15.53,6.13-3.63,13.41-5.44,21.86-5.44,15.31,0,25.82,6.45,31.51,19.35.27.61.18,1.32-.22,1.86l-5.76,7.72c-.71.95-2.12.99-2.87.08-4.59-5.54-10.54-8.3-17.85-8.3-4.4,0-8.24.98-11.51,2.94-3.27,1.96-5.74,4.76-7.41,8.39-1.67,3.63-2.5,8-2.5,13.12,0,7.61,1.87,13.59,5.62,17.93,3.75,4.35,9.01,6.51,15.79,6.51,4.04,0,7.67-.83,10.88-2.5,2.59-1.34,4.91-3.27,6.97-5.78.75-.92,2.17-.89,2.88.06l5.76,7.72c.39.53.48,1.23.23,1.83-2.73,6.41-6.63,11.22-11.73,14.45-5.35,3.39-11.96,5.09-19.81,5.09M709.22,548.86l-5.03-15.58c-.06-.18-.09-.37-.09-.57v-50.29c0-.18.03-.36.08-.54l5.06-16.63c.24-.78.95-1.3,1.76-1.3h14.82c1.02,0,1.84.82,1.84,1.84v82.51c0,1.02-.82,1.84-1.84,1.84h-14.84c-.8,0-1.5-.51-1.75-1.27"/>
        <path class="cls-3" d="M739.78,548.3v-82.51c0-1.02.82-1.84,1.84-1.84h14.84c.8,0,1.51.51,1.75,1.27l5.03,15.58c.06.18.09.37.09.57v66.93c0,1.02-.82,1.84-1.84,1.84h-19.88c-1.02,0-1.84-.82-1.84-1.84M799.97,550.14c-1.02,0-1.84-.82-1.84-1.84v-50.44c0-4.88-1.34-8.66-4.02-11.33-2.68-2.68-6.46-4.02-11.33-4.02-7.37,0-13.55,2.81-18.55,8.44-.77.86-2.14.79-2.83-.13l-5.77-7.74c-.42-.56-.49-1.33-.17-1.96,6.6-12.87,17.56-19.3,32.86-19.3,10.35,0,18.5,3,24.45,9.01,5.95,6.01,8.92,14.31,8.92,24.89v52.59c0,1.02-.82,1.84-1.84,1.84h-19.87Z"/>
        <path class="cls-3" d="M874.15,552.28c-14.4,0-25.61-4.01-33.64-12.04-8.03-8.03-12.04-19.12-12.04-33.28,0-9.16,1.84-17.13,5.53-23.91,3.69-6.78,8.89-12.01,15.61-15.7,6.72-3.68,14.72-5.53,24-5.53,13.2,0,23.67,3.92,31.41,11.78,7.73,7.85,11.6,18.74,11.6,32.66,0,1.19-.03,2.44-.09,3.75-.04.83-.11,1.7-.22,2.63-.11.94-.89,1.65-1.83,1.65h-72.39c-1.02,0-1.84-.82-1.84-1.84v-12.38c0-1.02.82-1.84,1.84-1.84h53.93c1.6,0,2.44,1.9,1.36,3.08l-.07.07c-1.09,1.19-3.04.49-3.19-1.12-.33-3.48-1.06-6.54-2.21-9.18-1.6-3.68-3.96-6.48-7.05-8.39-3.1-1.9-6.84-2.86-11.24-2.86-4.88,0-9.01,1.07-12.4,3.21-3.39,2.14-6.01,5.27-7.85,9.37-1.85,4.11-2.77,8.95-2.77,14.54,0,8.56,2.05,15.14,6.16,19.72,4.11,4.58,9.96,6.87,17.58,6.87,4.88,0,8.95-.89,12.22-2.68,2.87-1.56,5.35-3.58,7.44-6.07.52-.62,1.38-.86,2.13-.54l16.27,6.81c1.08.45,1.49,1.8.81,2.75-8.8,12.31-21.82,18.47-39.05,18.47"/>
      </g>
    </g>
  </g>
</svg>