<?xml version="1.0" encoding="UTF-8"?>
<svg id="Layer_1" data-name="Layer 1" xmlns="http://www.w3.org/2000/svg" xmlns:xlink="http://www.w3.org/1999/xlink" viewBox="0 0 1000 1000">
  <defs>
    <style>
      .cls-1 {
        fill: none;
      }

      .cls-2 {
        clip-path: url(#clippath-1);
      }

      .cls-3 {
        fill: #202020;
      }

      .cls-4 {
        clip-path: url(#clippath);
      }
    </style>
    <clipPath id="clippath">
      <rect class="cls-1" x="146.55" y="113.72" width="706.89" height="772.57"/>
    </clipPath>
    <clipPath id="clippath-1">
      <rect class="cls-1" x="146.55" y="113.72" width="706.89" height="772.57"/>
    </clipPath>
  </defs>
  <g id="Artwork_1" data-name="Artwork 1">
    <g class="cls-4">
      <g class="cls-2">
        <path class="cls-3" d="M846.28,656.77h-69.76V242.94c0-2.72-2.16-5.1-5.28-5.81l-193.97-44.09c-3.12-.71-5.29-3.1-5.29-5.82v-67.48c0-4.47-5.59-7.39-10.35-5.38l-133.83,56.34c-2.42,1.01-3.95,3.1-3.95,5.38v125.62c0,2.72-2.17,5.1-5.29,5.81l-189.78,43.13c-3.12.71-5.29,3.1-5.29,5.81v300.3h-69.76c-5.03,0-8.49,5.04-6.69,9.73,5.35,13.92,11.49,27.44,18.38,40.5,1.24,2.35,3.69,3.8,6.33,3.8h656.51c2.64,0,5.1-1.45,6.33-3.8,6.88-13.05,13.03-26.58,18.38-40.5,1.8-4.69-1.67-9.73-6.69-9.73M582.8,274.27l43.74,22.09c2.15,1.09,3.47,3.05,3.47,5.16v355.25h-58.06v-377.34c.01-4.68,6.08-7.57,10.84-5.16M369.98,415.05c0-2.12,1.32-4.08,3.47-5.16l39.54-19.97c4.77-2.41,10.84.48,10.84,5.16v261.69h-53.85v-241.72Z"/>
        <path class="cls-3" d="M798.03,744.51H201.97c-5.85,0-9.27,6.68-5.78,11.38,10.62,14.33,22.23,27.87,34.73,40.53,1.35,1.37,3.2,2.12,5.11,2.12h527.93c1.92,0,3.76-.76,5.11-2.12,12.51-12.66,24.11-26.2,34.73-40.53,3.48-4.7.07-11.38-5.78-11.38"/>
        <path class="cls-3" d="M705.94,832.25h-411.87c-7.09,0-9.85,9.18-3.95,13.12,24.59,16.46,51.23,30.1,79.44,40.46.81.3,1.66.45,2.52.45h255.87c.86,0,1.71-.15,2.51-.45,28.21-10.36,54.84-24,79.44-40.46,5.89-3.94,3.14-13.12-3.95-13.12"/>
      </g>
    </g>
  </g>
</svg>